<svg role="img" viewBox="0 0 24 24" xmlns="http://www.w3.org/2000/svg">
  <title>GitHub</title>
  <path d="M12 .297a12 12 0 00-3.79 23.41c.6.11.82-.26.82-.58
  0-.29-.01-1.04-.02-2.05-3.34.73-4.05-1.61-4.05-1.61-.55-1.39-1.35-1.76-1.35-1.76-1.1-.76.08-.75.08-.75
  1.21.09 1.85 1.25 1.85 1.25 1.08 1.84 2.83 1.31 3.52 1 .11-.78.42-1.31.76-1.61-2.67-.3-5.47-1.34-5.47-5.95
  0-1.31.47-2.38 1.24-3.22-.13-.3-.54-1.52.12-3.18 0 0 1.01-.32 3.3 1.23a11.5 11.5 0 016 0c2.28-1.55 3.3-1.23
  3.3-1.23.66 1.66.25 2.88.12 3.18.77.84 1.24 1.91 1.24 3.22 0 4.62-2.8 5.65-5.48 5.95.43.37.81 1.1.81 2.22
  0 1.6-.01 2.89-.01 3.28 0 .32.22.69.82.57A12 12 0 0012 .297"></path>
</svg>
